<mxfile host="app.diagrams.net" modified="2024-05-07T15:15:55.958Z" agent="Mozilla/5.0 (Windows NT 10.0; Win64; x64) AppleWebKit/537.36 (KHTML, like Gecko) Chrome/124.0.0.0 Safari/537.36" etag="-jEkEG8SGkSB-AlvB669" version="24.3.1" type="device">
  <diagram name="Page-1" id="BLEjJyAozihCP1DfYLIm">
    <mxGraphModel dx="1434" dy="772" grid="1" gridSize="10" guides="1" tooltips="1" connect="1" arrows="1" fold="1" page="1" pageScale="1" pageWidth="850" pageHeight="1100" math="0" shadow="0">
      <root>
        <mxCell id="0" />
        <mxCell id="1" parent="0" />
        <mxCell id="uAUOG3qX6oMV6cAR3CZH-12" style="edgeStyle=orthogonalEdgeStyle;rounded=0;orthogonalLoop=1;jettySize=auto;html=1;exitX=0.5;exitY=1;exitDx=0;exitDy=0;entryX=0.5;entryY=0;entryDx=0;entryDy=0;" edge="1" parent="1" source="uAUOG3qX6oMV6cAR3CZH-1" target="uAUOG3qX6oMV6cAR3CZH-2">
          <mxGeometry relative="1" as="geometry" />
        </mxCell>
        <mxCell id="uAUOG3qX6oMV6cAR3CZH-1" value="VZ_orarend" style="ellipse;whiteSpace=wrap;html=1;" vertex="1" parent="1">
          <mxGeometry x="40" y="40" width="120" height="80" as="geometry" />
        </mxCell>
        <mxCell id="uAUOG3qX6oMV6cAR3CZH-14" style="edgeStyle=orthogonalEdgeStyle;rounded=0;orthogonalLoop=1;jettySize=auto;html=1;exitX=0.5;exitY=1;exitDx=0;exitDy=0;entryX=0.5;entryY=0;entryDx=0;entryDy=0;" edge="1" parent="1" source="uAUOG3qX6oMV6cAR3CZH-2" target="uAUOG3qX6oMV6cAR3CZH-3">
          <mxGeometry relative="1" as="geometry" />
        </mxCell>
        <mxCell id="uAUOG3qX6oMV6cAR3CZH-16" style="edgeStyle=orthogonalEdgeStyle;rounded=0;orthogonalLoop=1;jettySize=auto;html=1;exitX=0.5;exitY=1;exitDx=0;exitDy=0;" edge="1" parent="1" source="uAUOG3qX6oMV6cAR3CZH-2" target="uAUOG3qX6oMV6cAR3CZH-4">
          <mxGeometry relative="1" as="geometry" />
        </mxCell>
        <mxCell id="uAUOG3qX6oMV6cAR3CZH-18" style="edgeStyle=orthogonalEdgeStyle;rounded=0;orthogonalLoop=1;jettySize=auto;html=1;exitX=0.5;exitY=1;exitDx=0;exitDy=0;" edge="1" parent="1" source="uAUOG3qX6oMV6cAR3CZH-2" target="uAUOG3qX6oMV6cAR3CZH-5">
          <mxGeometry relative="1" as="geometry" />
        </mxCell>
        <mxCell id="uAUOG3qX6oMV6cAR3CZH-20" style="edgeStyle=orthogonalEdgeStyle;rounded=0;orthogonalLoop=1;jettySize=auto;html=1;exitX=0.5;exitY=1;exitDx=0;exitDy=0;" edge="1" parent="1" source="uAUOG3qX6oMV6cAR3CZH-2" target="uAUOG3qX6oMV6cAR3CZH-6">
          <mxGeometry relative="1" as="geometry" />
        </mxCell>
        <mxCell id="uAUOG3qX6oMV6cAR3CZH-2" value="Event" style="ellipse;whiteSpace=wrap;html=1;" vertex="1" parent="1">
          <mxGeometry x="40" y="160" width="120" height="80" as="geometry" />
        </mxCell>
        <mxCell id="uAUOG3qX6oMV6cAR3CZH-3" value="course_name" style="ellipse;whiteSpace=wrap;html=1;" vertex="1" parent="1">
          <mxGeometry x="40" y="280" width="120" height="80" as="geometry" />
        </mxCell>
        <mxCell id="uAUOG3qX6oMV6cAR3CZH-4" value="address" style="ellipse;whiteSpace=wrap;html=1;" vertex="1" parent="1">
          <mxGeometry x="170" y="280" width="120" height="80" as="geometry" />
        </mxCell>
        <mxCell id="uAUOG3qX6oMV6cAR3CZH-5" value="presenter" style="ellipse;whiteSpace=wrap;html=1;" vertex="1" parent="1">
          <mxGeometry x="300" y="280" width="120" height="80" as="geometry" />
        </mxCell>
        <mxCell id="uAUOG3qX6oMV6cAR3CZH-6" value="major" style="ellipse;whiteSpace=wrap;html=1;noLabel=0;perimeter=ellipsePerimeter;fixDash=0;container=0;" vertex="1" parent="1">
          <mxGeometry x="430" y="280" width="120" height="80" as="geometry" />
        </mxCell>
        <mxCell id="uAUOG3qX6oMV6cAR3CZH-7" value="datetime" style="ellipse;whiteSpace=wrap;html=1;perimeterSpacing=10;strokeWidth=1;shadow=0;fillStyle=auto;border=20;permiter=ellipse;collapsible=0;container=0;perimeter=ellipsePerimeter;allowArrows=1;" vertex="1" parent="1">
          <mxGeometry x="570" y="280" width="120" height="80" as="geometry" />
        </mxCell>
        <mxCell id="uAUOG3qX6oMV6cAR3CZH-8" value="date" style="ellipse;whiteSpace=wrap;html=1;" vertex="1" parent="1">
          <mxGeometry x="430" y="400" width="120" height="80" as="geometry" />
        </mxCell>
        <mxCell id="uAUOG3qX6oMV6cAR3CZH-9" value="time_start" style="ellipse;whiteSpace=wrap;html=1;" vertex="1" parent="1">
          <mxGeometry x="570" y="400" width="120" height="80" as="geometry" />
        </mxCell>
        <mxCell id="uAUOG3qX6oMV6cAR3CZH-10" value="time_end" style="ellipse;whiteSpace=wrap;html=1;" vertex="1" parent="1">
          <mxGeometry x="710" y="400" width="120" height="80" as="geometry" />
        </mxCell>
        <mxCell id="uAUOG3qX6oMV6cAR3CZH-11" value="" style="endArrow=classic;html=1;rounded=0;exitX=0.479;exitY=0.91;exitDx=0;exitDy=0;exitPerimeter=0;entryX=0.5;entryY=0;entryDx=0;entryDy=0;" edge="1" parent="1" source="uAUOG3qX6oMV6cAR3CZH-7" target="uAUOG3qX6oMV6cAR3CZH-9">
          <mxGeometry width="50" height="50" relative="1" as="geometry">
            <mxPoint x="700" y="420" as="sourcePoint" />
            <mxPoint x="750" y="370" as="targetPoint" />
          </mxGeometry>
        </mxCell>
        <mxCell id="uAUOG3qX6oMV6cAR3CZH-13" value="" style="endArrow=classic;html=1;rounded=0;exitX=0.471;exitY=0.91;exitDx=0;exitDy=0;exitPerimeter=0;entryX=0.5;entryY=0;entryDx=0;entryDy=0;" edge="1" parent="1" source="uAUOG3qX6oMV6cAR3CZH-7" target="uAUOG3qX6oMV6cAR3CZH-8">
          <mxGeometry width="50" height="50" relative="1" as="geometry">
            <mxPoint x="700" y="420" as="sourcePoint" />
            <mxPoint x="750" y="370" as="targetPoint" />
          </mxGeometry>
        </mxCell>
        <mxCell id="uAUOG3qX6oMV6cAR3CZH-23" style="edgeStyle=orthogonalEdgeStyle;rounded=0;orthogonalLoop=1;jettySize=auto;html=1;exitX=0.5;exitY=1;exitDx=0;exitDy=0;entryX=0.494;entryY=0.133;entryDx=0;entryDy=0;entryPerimeter=0;" edge="1" parent="1" source="uAUOG3qX6oMV6cAR3CZH-2" target="uAUOG3qX6oMV6cAR3CZH-7">
          <mxGeometry relative="1" as="geometry" />
        </mxCell>
        <mxCell id="uAUOG3qX6oMV6cAR3CZH-26" value="" style="endArrow=classic;html=1;rounded=0;exitX=0.493;exitY=0.91;exitDx=0;exitDy=0;exitPerimeter=0;entryX=0.5;entryY=0;entryDx=0;entryDy=0;" edge="1" parent="1" source="uAUOG3qX6oMV6cAR3CZH-7" target="uAUOG3qX6oMV6cAR3CZH-10">
          <mxGeometry width="50" height="50" relative="1" as="geometry">
            <mxPoint x="700" y="420" as="sourcePoint" />
            <mxPoint x="750" y="370" as="targetPoint" />
          </mxGeometry>
        </mxCell>
      </root>
    </mxGraphModel>
  </diagram>
</mxfile>
